<svg width="319" height="120" viewBox="0 0 319 120" fill="none" xmlns="http://www.w3.org/2000/svg">
<path d="M114.15 76.5C112.017 76.5 110.1 76.15 108.4 75.45C106.7 74.7167 105.25 73.7167 104.05 72.45C102.883 71.1833 101.983 69.7333 101.35 68.1C100.717 66.4667 100.4 64.75 100.4 62.95C100.4 61.1167 100.717 59.3833 101.35 57.75C101.983 56.1167 102.883 54.6667 104.05 53.4C105.25 52.1333 106.7 51.15 108.4 50.45C110.1 49.7167 112.017 49.35 114.15 49.35C116.283 49.35 118.183 49.7167 119.85 50.45C121.55 51.15 123 52.1333 124.2 53.4C125.4 54.6667 126.3 56.1167 126.9 57.75C127.533 59.3833 127.85 61.1167 127.85 62.95C127.85 64.75 127.533 66.4667 126.9 68.1C126.3 69.7333 125.4 71.1833 124.2 72.45C123.033 73.7167 121.6 74.7167 119.9 75.45C118.2 76.15 116.283 76.5 114.15 76.5ZM107.3 62.95C107.3 64.4833 107.6 65.85 108.2 67.05C108.8 68.2167 109.617 69.1333 110.65 69.8C111.683 70.4667 112.85 70.8 114.15 70.8C115.417 70.8 116.567 70.4667 117.6 69.8C118.633 69.1 119.45 68.1667 120.05 67C120.683 65.8 121 64.4333 121 62.9C121 61.4 120.683 60.05 120.05 58.85C119.45 57.65 118.633 56.7167 117.6 56.05C116.567 55.3833 115.417 55.05 114.15 55.05C112.85 55.05 111.683 55.4 110.65 56.1C109.617 56.7667 108.8 57.7 108.2 58.9C107.6 60.0667 107.3 61.4167 107.3 62.95ZM147.682 74.65C147.115 74.8833 146.432 75.15 145.632 75.45C144.832 75.75 143.965 75.9833 143.032 76.15C142.132 76.35 141.215 76.45 140.282 76.45C139.048 76.45 137.915 76.2333 136.882 75.8C135.848 75.3667 135.015 74.6833 134.382 73.75C133.782 72.7833 133.482 71.5333 133.482 70V54.95H130.032V49.8H133.482V41.3H140.182V49.8H145.682V54.95H140.182V67.75C140.215 68.65 140.465 69.3 140.932 69.7C141.398 70.1 141.982 70.3 142.682 70.3C143.382 70.3 144.065 70.1833 144.732 69.95C145.398 69.7167 145.932 69.5167 146.332 69.35L147.682 74.65ZM162.929 76.5C160.796 76.5 158.879 76.15 157.179 75.45C155.479 74.7167 154.029 73.7167 152.829 72.45C151.663 71.1833 150.763 69.7333 150.129 68.1C149.496 66.4667 149.179 64.75 149.179 62.95C149.179 61.1167 149.496 59.3833 150.129 57.75C150.763 56.1167 151.663 54.6667 152.829 53.4C154.029 52.1333 155.479 51.15 157.179 50.45C158.879 49.7167 160.796 49.35 162.929 49.35C165.063 49.35 166.963 49.7167 168.629 50.45C170.329 51.15 171.779 52.1333 172.979 53.4C174.179 54.6667 175.079 56.1167 175.679 57.75C176.313 59.3833 176.629 61.1167 176.629 62.95C176.629 64.75 176.313 66.4667 175.679 68.1C175.079 69.7333 174.179 71.1833 172.979 72.45C171.813 73.7167 170.379 74.7167 168.679 75.45C166.979 76.15 165.063 76.5 162.929 76.5ZM156.079 62.95C156.079 64.4833 156.379 65.85 156.979 67.05C157.579 68.2167 158.396 69.1333 159.429 69.8C160.463 70.4667 161.629 70.8 162.929 70.8C164.196 70.8 165.346 70.4667 166.379 69.8C167.413 69.1 168.229 68.1667 168.829 67C169.463 65.8 169.779 64.4333 169.779 62.9C169.779 61.4 169.463 60.05 168.829 58.85C168.229 57.65 167.413 56.7167 166.379 56.05C165.346 55.3833 164.196 55.05 162.929 55.05C161.629 55.05 160.463 55.4 159.429 56.1C158.396 56.7667 157.579 57.7 156.979 58.9C156.379 60.0667 156.079 61.4167 156.079 62.95ZM202.813 76.5C200.58 76.5 198.447 76.1333 196.413 75.4C194.38 74.6667 192.63 73.5833 191.163 72.15L193.563 67.8C195.13 69.0667 196.663 70 198.163 70.6C199.697 71.2 201.163 71.5 202.563 71.5C203.863 71.5 204.897 71.2667 205.663 70.8C206.463 70.3333 206.863 69.6333 206.863 68.7C206.863 68.0667 206.647 67.5833 206.213 67.25C205.78 66.8833 205.147 66.5667 204.313 66.3C203.513 66.0333 202.53 65.7333 201.363 65.4C199.43 64.7667 197.813 64.15 196.513 63.55C195.213 62.95 194.23 62.2 193.563 61.3C192.93 60.3667 192.613 59.1833 192.613 57.75C192.613 56.0167 193.047 54.5333 193.913 53.3C194.813 52.0333 196.047 51.05 197.613 50.35C199.213 49.65 201.08 49.3 203.213 49.3C205.08 49.3 206.847 49.6 208.513 50.2C210.18 50.7667 211.697 51.7 213.063 53L210.363 57.25C209.03 56.2167 207.763 55.4667 206.563 55C205.363 54.5 204.147 54.25 202.913 54.25C202.213 54.25 201.547 54.3333 200.913 54.5C200.313 54.6667 199.813 54.95 199.413 55.35C199.047 55.7167 198.863 56.25 198.863 56.95C198.863 57.5833 199.03 58.0833 199.363 58.45C199.73 58.7833 200.263 59.0833 200.963 59.35C201.697 59.6167 202.58 59.9167 203.613 60.25C205.713 60.85 207.48 61.4667 208.913 62.1C210.38 62.7333 211.48 63.5167 212.213 64.45C212.947 65.35 213.313 66.6 213.313 68.2C213.313 70.8 212.363 72.8333 210.463 74.3C208.563 75.7667 206.013 76.5 202.813 76.5ZM216.07 68.25C216.07 66.55 216.537 65.0667 217.47 63.8C218.437 62.5 219.77 61.5 221.47 60.8C223.17 60.1 225.12 59.75 227.32 59.75C228.42 59.75 229.537 59.8333 230.67 60C231.804 60.1667 232.787 60.4333 233.62 60.8V59.4C233.62 57.7333 233.12 56.45 232.12 55.55C231.154 54.65 229.704 54.2 227.77 54.2C226.337 54.2 224.97 54.45 223.67 54.95C222.37 55.45 221.004 56.1833 219.57 57.15L217.42 52.75C219.154 51.6167 220.92 50.7667 222.72 50.2C224.554 49.6333 226.47 49.35 228.47 49.35C232.204 49.35 235.104 50.2833 237.17 52.15C239.27 54.0167 240.32 56.6833 240.32 60.15V68.5C240.32 69.2 240.437 69.7 240.67 70C240.937 70.3 241.354 70.4833 241.92 70.55V76C241.32 76.1 240.77 76.1833 240.27 76.25C239.804 76.3167 239.404 76.35 239.07 76.35C237.737 76.35 236.72 76.05 236.02 75.45C235.354 74.85 234.937 74.1167 234.77 73.25L234.62 71.9C233.487 73.3667 232.07 74.5 230.37 75.3C228.67 76.1 226.937 76.5 225.17 76.5C223.437 76.5 221.87 76.15 220.47 75.45C219.104 74.7167 218.02 73.7333 217.22 72.5C216.454 71.2333 216.07 69.8167 216.07 68.25ZM232.37 69.6C232.737 69.2 233.037 68.8 233.27 68.4C233.504 68 233.62 67.6333 233.62 67.3V64.65C232.82 64.3167 231.954 64.0667 231.02 63.9C230.087 63.7 229.204 63.6 228.37 63.6C226.637 63.6 225.204 63.9833 224.07 64.75C222.97 65.4833 222.42 66.4667 222.42 67.7C222.42 68.3667 222.604 69 222.97 69.6C223.337 70.2 223.87 70.6833 224.57 71.05C225.27 71.4167 226.104 71.6 227.07 71.6C228.07 71.6 229.054 71.4167 230.02 71.05C230.987 70.65 231.77 70.1667 232.37 69.6ZM246.531 39.5H253.231V67.6C253.231 68.8 253.431 69.6167 253.831 70.05C254.231 70.45 254.781 70.65 255.481 70.65C256.015 70.65 256.565 70.5833 257.131 70.45C257.698 70.3167 258.198 70.15 258.631 69.95L259.531 75.05C258.631 75.4833 257.581 75.8167 256.381 76.05C255.181 76.2833 254.098 76.4 253.131 76.4C251.031 76.4 249.398 75.85 248.231 74.75C247.098 73.6167 246.531 72.0167 246.531 69.95V39.5ZM274.6 76.5C272.5 76.5 270.6 76.15 268.9 75.45C267.2 74.7167 265.75 73.7333 264.55 72.5C263.35 71.2333 262.417 69.8 261.75 68.2C261.117 66.5667 260.8 64.85 260.8 63.05C260.8 60.55 261.35 58.2667 262.45 56.2C263.584 54.1333 265.184 52.4833 267.25 51.25C269.35 49.9833 271.817 49.35 274.65 49.35C277.517 49.35 279.967 49.9833 282 51.25C284.034 52.4833 285.584 54.1333 286.65 56.2C287.75 58.2333 288.3 60.4333 288.3 62.8C288.3 63.2 288.284 63.6167 288.25 64.05C288.217 64.45 288.184 64.7833 288.15 65.05H267.9C268.034 66.3833 268.417 67.55 269.05 68.55C269.717 69.55 270.55 70.3167 271.55 70.85C272.584 71.35 273.684 71.6 274.85 71.6C276.184 71.6 277.434 71.2833 278.6 70.65C279.8 69.9833 280.617 69.1167 281.05 68.05L286.8 69.65C286.167 70.9833 285.25 72.1667 284.05 73.2C282.884 74.2333 281.5 75.05 279.9 75.65C278.3 76.2167 276.534 76.5 274.6 76.5ZM267.75 60.8H281.45C281.317 59.4667 280.934 58.3167 280.3 57.35C279.7 56.35 278.9 55.5833 277.9 55.05C276.9 54.4833 275.784 54.2 274.55 54.2C273.35 54.2 272.25 54.4833 271.25 55.05C270.284 55.5833 269.484 56.35 268.85 57.35C268.25 58.3167 267.884 59.4667 267.75 60.8ZM302.032 76.5C299.799 76.5 297.665 76.1333 295.632 75.4C293.599 74.6667 291.849 73.5833 290.382 72.15L292.782 67.8C294.349 69.0667 295.882 70 297.382 70.6C298.915 71.2 300.382 71.5 301.782 71.5C303.082 71.5 304.115 71.2667 304.882 70.8C305.682 70.3333 306.082 69.6333 306.082 68.7C306.082 68.0667 305.865 67.5833 305.432 67.25C304.999 66.8833 304.365 66.5667 303.532 66.3C302.732 66.0333 301.749 65.7333 300.582 65.4C298.649 64.7667 297.032 64.15 295.732 63.55C294.432 62.95 293.449 62.2 292.782 61.3C292.149 60.3667 291.832 59.1833 291.832 57.75C291.832 56.0167 292.265 54.5333 293.132 53.3C294.032 52.0333 295.265 51.05 296.832 50.35C298.432 49.65 300.299 49.3 302.432 49.3C304.299 49.3 306.065 49.6 307.732 50.2C309.399 50.7667 310.915 51.7 312.282 53L309.582 57.25C308.249 56.2167 306.982 55.4667 305.782 55C304.582 54.5 303.365 54.25 302.132 54.25C301.432 54.25 300.765 54.3333 300.132 54.5C299.532 54.6667 299.032 54.95 298.632 55.35C298.265 55.7167 298.082 56.25 298.082 56.95C298.082 57.5833 298.249 58.0833 298.582 58.45C298.949 58.7833 299.482 59.0833 300.182 59.35C300.915 59.6167 301.799 59.9167 302.832 60.25C304.932 60.85 306.699 61.4667 308.132 62.1C309.599 62.7333 310.699 63.5167 311.432 64.45C312.165 65.35 312.532 66.6 312.532 68.2C312.532 70.8 311.582 72.8333 309.682 74.3C307.782 75.7667 305.232 76.5 302.032 76.5Z" fill="#364547"/>
<path fill-rule="evenodd" clip-rule="evenodd" d="M84.2221 30.7263V23.9372L84.2223 23.9038C84.2402 21.081 86.5376 18.7945 89.3648 18.7945C92.2028 18.7945 94.5073 21.0989 94.5073 23.9372V82.1344L94.507 82.2568C94.4394 103.101 77.4984 120 56.6417 120C53.8034 120 51.4992 117.696 51.4992 114.857C51.4992 112.019 53.8034 109.715 56.6417 109.715V109.676C71.6734 109.676 83.9088 97.6074 84.1786 82.6402C77.2715 89.9571 67.486 94.5256 56.6417 94.5256C35.7432 94.5256 18.7761 77.5585 18.7761 56.6601C18.7761 35.7616 35.7432 18.7945 56.6417 18.7945C67.509 18.7945 77.313 23.3825 84.2221 30.7263ZM56.6417 29.1185C71.8422 29.1185 84.1832 41.4596 84.1832 56.6601C84.1832 71.8606 71.8422 84.2016 56.6417 84.2016C41.4412 84.2016 29.1001 71.8606 29.1001 56.6601C29.1001 41.4596 41.4412 29.1185 56.6417 29.1185Z" fill="#364547"/>
<path fill-rule="evenodd" clip-rule="evenodd" d="M16.5801 20.8857C15.4046 19.6955 15.4094 17.7749 16.594 16.5903C17.7832 15.4012 19.7142 15.401 20.9034 16.5902L25.9108 21.5976C27.1 22.7867 27.0998 24.7178 25.9106 25.907C24.7214 27.0961 22.7904 27.0963 21.6012 25.9071L16.5938 20.8997L16.5801 20.8857Z" fill="#FFB037"/>
<path fill-rule="evenodd" clip-rule="evenodd" d="M3.02744 59.69C1.35466 59.6796 0 58.3182 0 56.643C0 54.9612 1.36533 53.5956 3.04708 53.5956H10.1286C11.8103 53.5956 13.1756 54.9612 13.1756 56.643C13.1756 58.3247 11.8103 59.6903 10.1286 59.6903H3.04708L3.02744 59.69Z" fill="#FFB037"/>
<path fill-rule="evenodd" clip-rule="evenodd" d="M20.8874 96.709C19.6972 97.8844 17.7766 97.8796 16.592 96.6951C15.4029 95.5059 15.4027 93.5749 16.5919 92.3857L21.5992 87.3783C22.7884 86.1891 24.7195 86.1893 25.9086 87.3785C27.0978 88.5677 27.098 90.4987 25.9088 91.6879L20.9014 96.6953L20.8874 96.709Z" fill="#FFB037"/>
<path d="M56.6405 84.1631C71.8394 84.1631 84.1605 71.8419 84.1605 56.6431C84.1605 41.4442 71.8394 29.1231 56.6405 29.1231C41.4416 29.1231 29.1205 41.4442 29.1205 56.6431C29.1205 71.8419 41.4416 84.1631 56.6405 84.1631Z" fill="#FFB037"/>
<path fill-rule="evenodd" clip-rule="evenodd" d="M56.4838 32.4444L56.5178 32.4446C58.184 32.4628 59.5311 33.8211 59.5311 35.4917C59.5311 37.1735 58.1656 38.5388 56.4838 38.5388C56.3432 38.5388 56.2045 38.5293 56.0687 38.5107C46.388 38.7291 38.5701 46.547 38.3517 56.228C38.3701 56.3638 38.3798 56.5022 38.3798 56.6431C38.3798 58.3248 37.0142 59.6904 35.3325 59.6904C33.6507 59.6904 32.2852 58.3248 32.2852 56.6431C32.2852 43.2875 43.1283 32.4444 56.4838 32.4444Z" fill="#FFE268"/>
<path fill-rule="evenodd" clip-rule="evenodd" d="M53.5963 3.02744C53.6067 1.35466 54.9682 0 56.6434 0C58.3251 0 59.6907 1.36533 59.6907 3.04708V10.1286C59.6907 11.8103 58.3251 13.1756 56.6434 13.1756C54.9616 13.1756 53.5961 11.8103 53.5961 10.1286V3.04708L53.5963 3.02744Z" fill="#FFB037"/>
</svg>
